<svg width="12" height="11" viewBox="0 0 12 11" fill="none" xmlns="http://www.w3.org/2000/svg">
<path d="M5.99708 0.00732422C2.8974 0.00732422 0.385986 2.36851 0.385986 5.28277C0.385986 8.19703 2.8974 10.5582 5.99708 10.5582C9.09676 10.5582 11.6082 8.19703 11.6082 5.28277C11.6082 2.36851 9.09676 0.00732422 5.99708 0.00732422ZM10.8842 5.28277C10.8842 7.80776 8.70986 9.87752 5.99708 9.87752C3.31145 9.87752 1.11 7.83328 1.11 5.28277C1.11 2.75779 3.2843 0.688027 5.99708 0.688027C8.68271 0.688027 10.8842 2.73226 10.8842 5.28277ZM7.51524 7.16109L5.67806 5.90604C5.60792 5.85712 5.5672 5.78054 5.5672 5.6997V2.3047C5.5672 2.1643 5.68938 2.04943 5.8387 2.04943H6.15546C6.30479 2.04943 6.42696 2.1643 6.42696 2.3047V5.41679L8.02205 6.50804C8.14423 6.591 8.16912 6.75054 8.08088 6.86541L7.89535 7.10578C7.80711 7.21852 7.63742 7.24405 7.51524 7.16109Z" fill="#5272E9"/>
</svg>
