<svg width="26" height="24" viewBox="0 0 26 24" fill="none" xmlns="http://www.w3.org/2000/svg">
<g clip-path="url(#clip0_121_2733)">
<path d="M8.93998 15C11.7159 15 13.9661 12.8174 13.9661 10.125C13.9661 7.43261 11.7159 5.25 8.93998 5.25C6.16411 5.25 3.91382 7.43261 3.91382 10.125C3.91382 12.8174 6.16411 15 8.93998 15Z" stroke="#343434" stroke-width="1.5" stroke-linecap="round" stroke-linejoin="round"/>
<path d="M15.4557 5.43173C16.147 5.24281 16.872 5.19978 17.5819 5.30552C18.2918 5.41126 18.9701 5.66333 19.5711 6.04475C20.1721 6.42616 20.6819 6.92807 21.0661 7.51666C21.4503 8.10525 21.6999 8.76685 21.7983 9.45692C21.8966 10.147 21.8414 10.8495 21.6363 11.5171C21.4311 12.1847 21.0809 12.8019 20.6091 13.3272C20.1373 13.8524 19.555 14.2735 18.9013 14.5621C18.2476 14.8507 17.5377 15.0001 16.8195 15.0001" stroke="#343434" stroke-width="1.5" stroke-linecap="round" stroke-linejoin="round"/>
<path d="M1.9801 18.5059C2.76509 17.4229 3.8072 16.539 5.01847 15.9288C6.22973 15.3186 7.57458 15.0001 8.93949 15C10.3044 14.9999 11.6493 15.3184 12.8606 15.9285C14.0719 16.5386 15.1141 17.4225 15.8991 18.5054" stroke="#343434" stroke-width="1.5" stroke-linecap="round" stroke-linejoin="round"/>
<path d="M16.8195 15C18.1845 14.999 19.5297 15.3171 20.7411 15.9273C21.9525 16.5375 22.9945 17.4218 23.7788 18.5054" stroke="#343434" stroke-width="1.5" stroke-linecap="round" stroke-linejoin="round"/>
</g>
<defs>
<clipPath id="clip0_121_2733">
<rect width="24.7442" height="24" fill="white" transform="translate(0.434082)"/>
</clipPath>
</defs>
</svg>
