<svg width="30" height="16" viewBox="0 0 30 16" fill="none" xmlns="http://www.w3.org/2000/svg">
<path d="M8.97726 15.7832C13.2963 15.7832 17.8042 15.5388 22.6258 15.0455C24.075 14.898 25.3754 14.7233 26.6068 14.0782C27.3124 13.7263 27.944 13.208 28.4597 12.5577C28.9754 11.9074 29.3633 11.14 29.5977 10.3064C29.7991 9.58074 29.8291 8.80776 29.6848 8.06479C29.2352 6.00222 27.3801 5.27172 26.026 4.9017C20.0541 3.27265 13.9591 1.88901 7.91579 0.789443C7.85863 0.779098 7.80023 0.781635 7.74393 0.796911C7.68764 0.812187 7.63454 0.839902 7.58768 0.878473C7.54082 0.917045 7.50111 0.965717 7.47081 1.02171C7.44052 1.07771 7.42024 1.13993 7.41112 1.20482C7.40201 1.26971 7.40425 1.33601 7.4177 1.39992C7.43116 1.46384 7.45557 1.52411 7.48955 1.57732C7.52352 1.63052 7.56639 1.6756 7.61572 1.71C7.66504 1.74439 7.71984 1.76741 7.777 1.77776C13.7972 2.87207 19.8678 4.25046 25.8186 5.87473C27.0471 6.20895 28.4997 6.78809 28.8302 8.30399C28.9365 8.87482 28.9098 9.46725 28.7528 10.0228C28.5545 10.7204 28.2277 11.3622 27.7942 11.9055C27.3607 12.4488 26.8303 12.8812 26.2383 13.174C25.0602 13.7008 23.8121 13.998 22.5468 14.0529C16.2699 14.7321 9.95992 14.9326 3.65939 14.6531C2.72913 14.6053 1.80897 14.453 1.37706 13.6314C1.05029 13.0107 1.05828 12.1255 1.09655 11.1964C1.1445 10.0615 1.20337 8.6487 1.76228 7.67853C2.58825 6.24619 4.21284 6.1507 5.67089 6.18269C8.78296 6.23951 19.7593 7.63174 21.7603 8.2233C21.8723 8.25318 21.99 8.23216 22.0885 8.16475C22.187 8.09733 22.2583 7.98886 22.2872 7.86252C22.3162 7.73619 22.3005 7.60201 22.2434 7.48867C22.1864 7.37533 22.0925 7.29182 21.982 7.25599C19.891 6.63531 8.92511 5.24212 5.68518 5.18244C3.8684 5.14997 2.04532 5.36243 1.02506 7.13186C0.334094 8.32929 0.268067 9.89293 0.21676 11.1501C0.171341 12.2377 0.168817 13.2852 0.620069 14.1446C1.35519 15.5421 2.88558 15.6171 3.6207 15.6533C5.3786 15.7393 7.1609 15.7827 8.97684 15.7827" fill="black" fill-opacity="0.5"/>
</svg>
