<svg width="13" height="12" viewBox="0 0 13 12" fill="none" xmlns="http://www.w3.org/2000/svg">
<path d="M6.51649 0.589355C3.41681 0.589355 0.905396 2.95054 0.905396 5.8648C0.905396 8.77906 3.41681 11.1403 6.51649 11.1403C9.61617 11.1403 12.1276 8.77906 12.1276 5.8648C12.1276 2.95054 9.61617 0.589355 6.51649 0.589355ZM11.4036 5.8648C11.4036 8.38979 9.22927 10.4595 6.51649 10.4595C3.83086 10.4595 1.62941 8.41531 1.62941 5.8648C1.62941 3.33982 3.80371 1.27006 6.51649 1.27006C9.20212 1.27006 11.4036 3.31429 11.4036 5.8648ZM8.03465 7.74312L6.19747 6.48807C6.12733 6.43915 6.08661 6.36257 6.08661 6.28173V2.88673C6.08661 2.74633 6.20879 2.63146 6.35811 2.63146H6.67487C6.8242 2.63146 6.94637 2.74633 6.94637 2.88673V5.99882L8.54146 7.09007C8.66364 7.17303 8.68853 7.33257 8.60029 7.44744L8.41476 7.68781C8.32652 7.80055 8.15683 7.82608 8.03465 7.74312Z" fill="#5272E9"/>
</svg>
