<svg width="12" height="12" viewBox="0 0 12 12" fill="none" xmlns="http://www.w3.org/2000/svg">
<path d="M6.13795 0.592285C3.03827 0.592285 0.526855 2.95347 0.526855 5.86773C0.526855 8.78199 3.03827 11.1432 6.13795 11.1432C9.23763 11.1432 11.749 8.78199 11.749 5.86773C11.749 2.95347 9.23763 0.592285 6.13795 0.592285ZM11.025 5.86773C11.025 8.39272 8.85073 10.4625 6.13795 10.4625C3.45232 10.4625 1.25087 8.41824 1.25087 5.86773C1.25087 3.34275 3.42517 1.27299 6.13795 1.27299C8.82358 1.27299 11.025 3.31722 11.025 5.86773ZM7.65611 7.74605L5.81893 6.491C5.74879 6.44208 5.70807 6.3655 5.70807 6.28466V2.88966C5.70807 2.74926 5.83025 2.63439 5.97957 2.63439H6.29633C6.44566 2.63439 6.56783 2.74926 6.56783 2.88966V6.00175L8.16292 7.093C8.2851 7.17596 8.30999 7.3355 8.22175 7.45037L8.03622 7.69074C7.94798 7.80348 7.77829 7.82901 7.65611 7.74605Z" fill="#5272E9"/>
</svg>
