<svg width="12" height="12" viewBox="0 0 12 12" fill="none" xmlns="http://www.w3.org/2000/svg">
<path d="M6.01686 0.866211C2.91718 0.866211 0.405762 3.2274 0.405762 6.14166C0.405762 9.05592 2.91718 11.4171 6.01686 11.4171C9.11653 11.4171 11.628 9.05592 11.628 6.14166C11.628 3.2274 9.11653 0.866211 6.01686 0.866211ZM10.9039 6.14166C10.9039 8.66664 8.72964 10.7364 6.01686 10.7364C3.33122 10.7364 1.12977 8.69217 1.12977 6.14166C1.12977 3.61668 3.30407 1.54691 6.01686 1.54691C8.70249 1.54691 10.9039 3.59115 10.9039 6.14166ZM7.53502 8.01997L5.69784 6.76493C5.6277 6.716 5.58697 6.63942 5.58697 6.55859V3.16358C5.58697 3.02319 5.70915 2.90832 5.85848 2.90832H6.17523C6.32456 2.90832 6.44674 3.02319 6.44674 3.16358V6.27567L8.04183 7.36693C8.16401 7.44989 8.18889 7.60943 8.10065 7.72429L7.91513 7.96467C7.82689 8.07741 7.6572 8.10293 7.53502 8.01997Z" fill="#24B0C9"/>
</svg>
