<svg width="12" height="12" viewBox="0 0 12 12" fill="none" xmlns="http://www.w3.org/2000/svg">
<path d="M5.62464 0.604736C2.52497 0.604736 0.0135498 2.96592 0.0135498 5.88019C0.0135498 8.79445 2.52497 11.1556 5.62464 11.1556C8.72432 11.1556 11.2357 8.79445 11.2357 5.88019C11.2357 2.96592 8.72432 0.604736 5.62464 0.604736ZM10.5117 5.88019C10.5117 8.40517 8.33743 10.4749 5.62464 10.4749C2.93901 10.4749 0.737562 8.43069 0.737562 5.88019C0.737562 3.3552 2.91186 1.28544 5.62464 1.28544C8.31028 1.28544 10.5117 3.32968 10.5117 5.88019ZM7.14281 7.7585L5.30563 6.50345C5.23549 6.45453 5.19476 6.37795 5.19476 6.29712V2.90211C5.19476 2.76171 5.31694 2.64685 5.46627 2.64685H5.78302C5.93235 2.64685 6.05453 2.76171 6.05453 2.90211V6.0142L7.64962 7.10545C7.77179 7.18841 7.79668 7.34795 7.70844 7.46282L7.52291 7.70319C7.43468 7.81593 7.26499 7.84146 7.14281 7.7585Z" fill="#5272E9"/>
</svg>
