<svg width="688" height="75" viewBox="0 0 688 75" fill="none" xmlns="http://www.w3.org/2000/svg">
<path d="M0 16C0 7.16346 7.16344 0 16 0H672C680.837 0 688 7.16344 688 16V37.4716V58.9432C688 67.7798 680.837 74.9432 672 74.9432H16C7.16345 74.9432 0 67.7798 0 58.9432V16Z" fill="#FA0000" fill-opacity="0.08"/>
<path d="M0.5 16C0.5 7.43961 7.43959 0.5 16 0.5H672C680.56 0.5 687.5 7.43959 687.5 16V37.4716V58.9432C687.5 67.5036 680.56 74.4432 672 74.4432H16C7.43959 74.4432 0.5 67.5036 0.5 58.9432V16Z" stroke="#A76A6A" stroke-opacity="0.08"/>
</svg>
