<svg width="31" height="26" viewBox="0 0 31 26" fill="none" xmlns="http://www.w3.org/2000/svg">
<path d="M2.17523 7.55858C2.17523 8.11086 2.62295 8.55858 3.17523 8.55858C3.72752 8.55858 4.17523 8.11086 4.17523 7.55858H2.17523ZM8.9255 3.60498C9.47778 3.60498 9.9255 3.15727 9.9255 2.60498C9.9255 2.0527 9.47778 1.60498 8.9255 1.60498V3.60498ZM21.3844 1.60498C20.8321 1.60498 20.3844 2.0527 20.3844 2.60498C20.3844 3.15727 20.8321 3.60498 21.3844 3.60498V1.60498ZM22.3428 2.60498V1.60498V2.60498ZM27.1347 6.73298H26.1347H27.1347ZM26.1347 7.55858C26.1347 8.11086 26.5824 8.55858 27.1347 8.55858C27.6869 8.55858 28.1347 8.11086 28.1347 7.55858H26.1347ZM8.1406 21.113C8.55904 20.7526 8.60603 20.1211 8.24557 19.7027C7.88511 19.2843 7.25369 19.2373 6.83526 19.5977L8.1406 21.113ZM3.48094 22.4873C3.0625 22.8478 3.01551 23.4792 3.37597 23.8976C3.73643 24.3161 4.36785 24.3631 4.78628 24.0026L3.48094 22.4873ZM25.5236 24.0026C25.942 24.3631 26.5735 24.3161 26.9339 23.8976C27.2944 23.4792 27.2474 22.8478 26.829 22.4873L25.5236 24.0026ZM23.4746 19.5977C23.0562 19.2373 22.4248 19.2843 22.0643 19.7027C21.7039 20.1211 21.7509 20.7526 22.1693 21.113L23.4746 19.5977ZM16.1549 10.345C16.1549 9.79269 15.7072 9.34498 15.1549 9.34498C14.6027 9.34498 14.1549 9.79269 14.1549 10.345H16.1549ZM14.1549 16.795C14.1549 17.3473 14.6027 17.795 15.1549 17.795C15.7072 17.795 16.1549 17.3473 16.1549 16.795H14.1549ZM18.8986 14.57C19.4509 14.57 19.8986 14.1223 19.8986 13.57C19.8986 13.0177 19.4509 12.57 18.8986 12.57V14.57ZM11.4113 12.57C10.859 12.57 10.4113 13.0177 10.4113 13.57C10.4113 14.1223 10.859 14.57 11.4113 14.57V12.57ZM4.17523 7.55858V6.73298H2.17523V7.55858H4.17523ZM7.96712 3.60498H8.9255V1.60498H7.96712V3.60498ZM4.17523 6.73298C4.17523 5.14019 5.72776 3.60498 7.96712 3.60498V1.60498C4.9135 1.60498 2.17523 3.76611 2.17523 6.73298H4.17523ZM21.3844 3.60498H22.3428V1.60498L21.3844 1.60498V3.60498ZM26.1347 6.73298V7.55858H28.1347V6.73298H26.1347ZM22.3428 3.60498C24.5821 3.60498 26.1347 5.14019 26.1347 6.73298H28.1347C28.1347 3.76611 25.3964 1.60498 22.3428 1.60498V3.60498ZM6.83526 19.5977L3.48094 22.4873L4.78628 24.0026L8.1406 21.113L6.83526 19.5977ZM26.829 22.4873L23.4746 19.5977L22.1693 21.113L25.5236 24.0026L26.829 22.4873ZM24.6971 13.7506C24.6971 18.0792 20.5701 21.8322 15.1549 21.8322V23.8322C21.3843 23.8322 26.6971 19.4532 26.6971 13.7506H24.6971ZM15.1549 21.8322C9.73981 21.8322 5.6128 18.0792 5.6128 13.7506H3.6128C3.6128 19.4532 8.92555 23.8322 15.1549 23.8322V21.8322ZM5.6128 13.7506C5.6128 9.42199 9.73981 5.66898 15.1549 5.66898V3.66898C8.92555 3.66898 3.6128 8.04791 3.6128 13.7506H5.6128ZM15.1549 5.66898C20.5701 5.66898 24.6971 9.42199 24.6971 13.7506H26.6971C26.6971 8.04791 21.3843 3.66898 15.1549 3.66898V5.66898ZM14.1549 10.345V13.57H16.1549V10.345H14.1549ZM14.1549 13.57V16.795H16.1549V13.57H14.1549ZM18.8986 12.57H15.1549V14.57H18.8986V12.57ZM15.1549 12.57H11.4113V14.57H15.1549V12.57Z" fill="#F7CCC8"/>
</svg>
