<svg width="26" height="24" viewBox="0 0 26 24" fill="none" xmlns="http://www.w3.org/2000/svg">
<g clip-path="url(#clip0_2157_3076)">
<path d="M8.93998 15C11.7159 15 13.9661 12.8174 13.9661 10.125C13.9661 7.43261 11.7159 5.25 8.93998 5.25C6.16411 5.25 3.91382 7.43261 3.91382 10.125C3.91382 12.8174 6.16411 15 8.93998 15Z" stroke="#343434" stroke-width="1.5" stroke-linecap="round" stroke-linejoin="round"/>
<path d="M15.4556 5.43173C16.1469 5.24281 16.8719 5.19978 17.5818 5.30552C18.2917 5.41126 18.97 5.66333 19.571 6.04475C20.172 6.42616 20.6818 6.92807 21.066 7.51666C21.4501 8.10525 21.6998 8.76685 21.7982 9.45692C21.8965 10.147 21.8413 10.8495 21.6361 11.5171C21.431 12.1847 21.0808 12.8019 20.609 13.3272C20.1372 13.8524 19.5548 14.2735 18.9012 14.5621C18.2475 14.8507 17.5376 15.0001 16.8194 15.0001" stroke="#343434" stroke-width="1.5" stroke-linecap="round" stroke-linejoin="round"/>
<path d="M1.97998 18.5059C2.76496 17.4229 3.80708 16.539 5.01834 15.9288C6.22961 15.3186 7.57446 15.0001 8.93936 15C10.3043 14.9999 11.6491 15.3184 12.8605 15.9285C14.0718 16.5386 15.114 17.4225 15.899 18.5054" stroke="#343434" stroke-width="1.5" stroke-linecap="round" stroke-linejoin="round"/>
<path d="M16.8193 15C18.1844 14.999 19.5295 15.3171 20.7409 15.9273C21.9524 16.5375 22.9943 17.4218 23.7787 18.5054" stroke="#343434" stroke-width="1.5" stroke-linecap="round" stroke-linejoin="round"/>
</g>
<defs>
<clipPath id="clip0_2157_3076">
<rect width="24.7442" height="24" fill="white" transform="translate(0.434082)"/>
</clipPath>
</defs>
</svg>
