<svg width="25" height="24" viewBox="0 0 25 24" fill="none" xmlns="http://www.w3.org/2000/svg">
<path fill-rule="evenodd" clip-rule="evenodd" d="M20.66 12.1927C20.66 11.59 20.6059 11.0105 20.5055 10.4541H12.5V13.7421H17.0746C16.8775 14.8046 16.2786 15.7048 15.3784 16.3075V18.4403H18.1255C19.7327 16.9605 20.66 14.7814 20.66 12.1927Z" fill="#4285F4"/>
<path fill-rule="evenodd" clip-rule="evenodd" d="M12.5 20.5002C14.795 20.5002 16.7191 19.7391 18.1254 18.4409L15.3784 16.3082C14.6173 16.8182 13.6436 17.1196 12.5 17.1196C10.2861 17.1196 8.41224 15.6243 7.74383 13.6152H4.90405V15.8175C6.30269 18.5955 9.17724 20.5002 12.5 20.5002Z" fill="#34A853"/>
<path fill-rule="evenodd" clip-rule="evenodd" d="M7.74387 13.6149C7.57387 13.1049 7.47728 12.5601 7.47728 11.9999C7.47728 11.4397 7.57387 10.8949 7.74387 10.3849V8.18262H4.90409C4.32841 9.33012 4 10.6283 4 11.9999C4 13.3715 4.32841 14.6697 4.90409 15.8172L7.74387 13.6149Z" fill="#FBBC05"/>
<path fill-rule="evenodd" clip-rule="evenodd" d="M12.5 6.88069C13.7479 6.88069 14.8684 7.30955 15.7493 8.15183L18.1873 5.71387C16.7152 4.34227 14.7911 3.5 12.5 3.5C9.17724 3.5 6.30269 5.40478 4.90405 8.18273L7.74383 10.385C8.41224 8.37592 10.2861 6.88069 12.5 6.88069Z" fill="#EA4335"/>
</svg>
