<svg width="13" height="12" viewBox="0 0 13 12" fill="none" xmlns="http://www.w3.org/2000/svg">
<path d="M6.59254 0.496826C3.49286 0.496826 0.981445 2.85801 0.981445 5.77227C0.981445 8.68653 3.49286 11.0477 6.59254 11.0477C9.69222 11.0477 12.2036 8.68653 12.2036 5.77227C12.2036 2.85801 9.69222 0.496826 6.59254 0.496826ZM11.4796 5.77227C11.4796 8.29726 9.30532 10.367 6.59254 10.367C3.90691 10.367 1.70546 8.32278 1.70546 5.77227C1.70546 3.24729 3.87976 1.17753 6.59254 1.17753C9.27817 1.17753 11.4796 3.22177 11.4796 5.77227ZM8.1107 7.65059L6.27352 6.39554C6.20338 6.34662 6.16266 6.27004 6.16266 6.18921V2.7942C6.16266 2.6538 6.28483 2.53894 6.43416 2.53894H6.75092C6.90025 2.53894 7.02242 2.6538 7.02242 2.7942V5.90629L8.61751 6.99754C8.73969 7.0805 8.76458 7.24004 8.67634 7.35491L8.49081 7.59528C8.40257 7.70802 8.23288 7.73355 8.1107 7.65059Z" fill="#24B0C9"/>
</svg>
