<svg width="16" height="18" viewBox="0 0 16 18" fill="none" xmlns="http://www.w3.org/2000/svg">
<path d="M15.4975 10.1104H13.9028C11.1414 10.1104 8.90282 12.349 8.90282 15.1104V17.5997C8.90282 17.8065 8.75526 17.9741 8.57309 17.9741H7.25415C7.07197 17.9741 6.92442 17.8065 6.92442 17.5997V15.1104C6.92442 12.349 4.68584 10.1104 1.92442 10.1104H0.329734C0.147556 10.1104 0 9.94287 0 9.73598V8.23814C0 8.03125 0.147556 7.86368 0.329734 7.86368H1.92442C4.68584 7.86368 6.92442 5.6251 6.92442 2.86368V0.374464C6.92442 0.167574 7.07197 3.8147e-06 7.25415 3.8147e-06H8.57309C8.75526 3.8147e-06 8.90282 0.167574 8.90282 0.374464V2.86368C8.90282 5.6251 11.1414 7.86368 13.9028 7.86368H15.4975C15.6797 7.86368 15.8272 8.03125 15.8272 8.23814V9.73598C15.8272 9.94287 15.6797 10.1104 15.4975 10.1104Z" fill="white"/>
</svg>
