<svg width="32" height="32" viewBox="0 0 32 32" fill="none" xmlns="http://www.w3.org/2000/svg">
<path d="M30.8281 3.72648C30.6121 3.24212 30.2127 2.86323 29.7177 2.67293C29.2227 2.48262 28.6723 2.49644 28.1875 2.71135L11.7877 9.99992H6.99999C5.43116 9.99989 3.92472 10.6143 2.80346 11.7116C1.6822 12.8089 1.03531 14.3017 1.0014 15.8701C0.967497 17.4386 1.54927 18.9579 2.62207 20.1026C3.69487 21.2473 5.17334 21.9263 6.74071 21.9941L11 21.998V28.9999H13V22.5382L28.1885 29.289C28.493 29.4241 28.8264 29.481 29.1585 29.4545C29.4906 29.4281 29.8108 29.3191 30.0901 29.1375C30.3694 28.9559 30.5989 28.7074 30.7578 28.4146C30.9167 28.1218 30.9999 27.794 31 27.4609V4.53849C30.9995 4.25884 30.941 3.98233 30.8281 3.72648ZM6.8164 19.996C5.77255 19.948 4.78894 19.4934 4.07596 18.7294C3.36297 17.9655 2.97721 16.9529 3.0012 15.9083C3.02519 14.8636 3.45701 13.8698 4.2043 13.1394C4.9516 12.409 5.95503 12 6.99999 11.9999H11V19.9999H7.02245L6.8164 19.996ZM29 27.4609L13 20.3505V11.6498L29 4.53849V27.4609Z" fill="#222222"/>
</svg>
