<svg width="28" height="28" viewBox="0 0 28 28" fill="none" xmlns="http://www.w3.org/2000/svg">
<g clip-path="url(#clip0_73_2506)">
<path fill-rule="evenodd" clip-rule="evenodd" d="M5.89551 13.9099C5.89551 9.21456 9.70186 5.4082 14.3972 5.4082C19.0926 5.4082 22.899 9.21456 22.899 13.9099C22.899 18.6053 19.0926 22.4117 14.3972 22.4117C9.70186 22.4117 5.89551 18.6053 5.89551 13.9099ZM14.3972 7.10855C10.6409 7.10855 7.59585 10.1536 7.59585 13.9099C7.59585 17.6662 10.6409 20.7113 14.3972 20.7113C18.1535 20.7113 21.1986 17.6662 21.1986 13.9099C21.1986 10.1536 18.1535 7.10855 14.3972 7.10855Z" fill="#1A1A1A" fill-opacity="0.61"/>
<path fill-rule="evenodd" clip-rule="evenodd" d="M14.3973 13.9097C14.8669 13.9097 15.2475 14.2903 15.2475 14.7598V18.1605C15.2475 18.6301 14.8669 19.0107 14.3973 19.0107C13.9278 19.0107 13.5471 18.6301 13.5471 18.1605V14.7598C13.5471 14.2903 13.9278 13.9097 14.3973 13.9097Z" fill="#1A1A1A" fill-opacity="0.61"/>
<path fill-rule="evenodd" clip-rule="evenodd" d="M14.3972 11.0905C14.5146 11.0905 14.6097 10.9953 14.6097 10.8779C14.6097 10.7606 14.5146 10.6654 14.3972 10.6654V9.39014C13.5755 9.39014 12.9094 10.0563 12.9094 10.8779C12.9094 11.6996 13.5755 12.3657 14.3972 12.3657V11.0905Z" fill="#1A1A1A" fill-opacity="0.61"/>
<path fill-rule="evenodd" clip-rule="evenodd" d="M14.3971 9.39014C15.2189 9.39014 15.885 10.0563 15.885 10.8779C15.885 11.6996 15.2189 12.3657 14.3971 12.3657V11.0905C14.2797 11.0905 14.1846 10.9953 14.1846 10.8779C14.1846 10.7606 14.2797 10.6654 14.3971 10.6654V9.39014Z" fill="#1A1A1A" fill-opacity="0.61"/>
</g>
<defs>
<clipPath id="clip0_73_2506">
<rect width="27.2055" height="27.2055" fill="white" transform="translate(0.794434 0.307129)"/>
</clipPath>
</defs>
</svg>
