<svg width="42" height="32" viewBox="0 0 42 32" fill="none" xmlns="http://www.w3.org/2000/svg">
<path d="M29 0L29.555 0.37C33.398 2.932 37.208 4.202 41 4.202H42V16.702C42 24.776 36.21 30.202 29 30.202C21.79 30.202 16 24.776 16 16.702V4.202H17C20.792 4.202 24.602 2.932 28.445 0.37L29 0ZM28 3.005C24.8 4.871 21.582 5.925 18.352 6.154L18 6.174V16.702C18 23.26 22.347 27.693 28 28.161V3.005ZM30 3.005V28.162C35.654 27.694 40 23.261 40 16.703V6.174L39.648 6.154C36.418 5.924 33.2 4.872 30.001 3.006L30 3.005Z" fill="black"/>
</svg>
