<svg width="33" height="26" viewBox="0 0 33 26" fill="none" xmlns="http://www.w3.org/2000/svg">
<path d="M18.0442 22.3764H11.3326C7.6258 22.3764 4.62088 20.0571 4.62088 17.1961V8.9076C4.62088 6.0466 7.6258 3.72729 11.3326 3.72729L22.0712 3.72729C25.778 3.72729 28.7829 6.0466 28.7829 8.9076V14.0879" stroke="black" stroke-width="1.5" stroke-linecap="round" stroke-linejoin="round"/>
<path d="M20.1195 10.4142C22.0062 11.8709 22.0059 14.2322 20.1188 15.6886C18.2316 17.145 15.1722 17.145 13.2851 15.6886C11.3979 14.2322 11.3976 11.8709 13.2843 10.4142C14.1906 9.71442 15.42 9.32129 16.7019 9.32129C17.9838 9.32129 19.2132 9.71442 20.1195 10.4142" stroke="black" stroke-width="1.5" stroke-linecap="round" stroke-linejoin="round"/>
<path d="M23.4136 20.8159H30.1252" stroke="black" stroke-width="1.5" stroke-linecap="round" stroke-linejoin="round"/>
<path d="M26.7694 23.4059V18.2256" stroke="black" stroke-width="1.5" stroke-linecap="round" stroke-linejoin="round"/>
</svg>
